<svg xmlns="http://www.w3.org/2000/svg" viewBox="0 0 171.38 112.658"><path d="M78.303 112.658H158.807C167.87 112.658 171.38 110.044 171.38 104.55 171.38 88.336 151.12 65.957 118.53 65.957 85.99 65.957 65.702 88.336 65.702 104.55 65.703 110.044 69.214 112.658 78.303 112.658ZM118.584 54.67C132.205 54.67 143.61 42.637 143.61 26.96 143.61 11.697 132.122 0 118.584 0 105.1 0 93.528 11.907 93.584 27.066 93.584 42.637 105.016 54.67 118.584 54.67Z" fill="#027aff"></path><path d="M10.497 112.658H60.034C53.407 104.368 60.624 85.283 74.331 74.404 67.362 69.4 58.129 65.74 45.991 65.74 17.686 65.74 0 86.557 0 104.068 0 109.723 3.08 112.658 10.496 112.658ZM46.045 56.09C57.897 56.09 67.857 45.613 67.857 31.972 67.857 18.662 57.814 8.494 46.045 8.494 34.33 8.494 24.206 18.821 24.262 32.077 24.262 45.613 34.246 56.09 46.045 56.09Z" fill="#027aff" fill-opacity="0.5"></path></svg>